<svg width="28" height="28" viewBox="0 0 28 28" fill="none" xmlns="http://www.w3.org/2000/svg">
<path d="M14.0002 7.58325C14.7737 7.58325 15.5156 7.89054 16.0626 8.43752C16.6095 8.9845 16.9168 9.72637 16.9168 10.4999C16.9168 10.8829 16.8414 11.2622 16.6948 11.6161C16.5482 11.9699 16.3334 12.2915 16.0626 12.5623C15.7917 12.8332 15.4702 13.048 15.1163 13.1946C14.7625 13.3411 14.3832 13.4166 14.0002 13.4166C13.2266 13.4166 12.4847 13.1093 11.9378 12.5623C11.3908 12.0153 11.0835 11.2735 11.0835 10.4999C11.0835 9.72637 11.3908 8.9845 11.9378 8.43752C12.4847 7.89054 13.2266 7.58325 14.0002 7.58325ZM14.0002 2.33325C16.1661 2.33325 18.2433 3.19367 19.7749 4.72521C21.3064 6.25676 22.1668 8.33398 22.1668 10.4999C22.1668 16.6249 14.0002 25.6666 14.0002 25.6666C14.0002 25.6666 5.8335 16.6249 5.8335 10.4999C5.8335 8.33398 6.69391 6.25676 8.22546 4.72521C9.757 3.19367 11.8342 2.33325 14.0002 2.33325ZM14.0002 4.66659C12.4531 4.66659 10.9693 5.28117 9.87537 6.37513C8.78141 7.46909 8.16683 8.95282 8.16683 10.4999C8.16683 11.6666 8.16683 13.9999 14.0002 21.8283C19.8335 13.9999 19.8335 11.6666 19.8335 10.4999C19.8335 8.95282 19.2189 7.46909 18.125 6.37513C17.031 5.28117 15.5473 4.66659 14.0002 4.66659Z" fill="#010504"/>
</svg>
