<svg width="28" height="28" viewBox="0 0 28 28" fill="none" xmlns="http://www.w3.org/2000/svg">
<path d="M24.9785 13.5099L14.4785 3.00992C14.041 2.57601 13.4497 2.33276 12.8335 2.33325H4.66683C4.04799 2.33325 3.4545 2.57909 3.01691 3.01667C2.57933 3.45425 2.3335 4.04775 2.3335 4.66659V12.8333C2.33325 13.1411 2.39395 13.4461 2.51209 13.7304C2.63022 14.0147 2.80347 14.2729 3.02183 14.4899L13.5218 24.9899C13.9593 25.4238 14.5507 25.6671 15.1668 25.6666C15.7847 25.664 16.3763 25.4164 16.8118 24.9783L24.9785 16.8116C25.4167 16.376 25.6642 15.7844 25.6668 15.1666C25.6671 14.8587 25.6064 14.5538 25.4882 14.2695C25.3701 13.9851 25.1969 13.727 24.9785 13.5099ZM15.1668 23.3333L4.66683 12.8333V4.66659H12.8335L23.3335 15.1666M7.5835 5.83325C7.92961 5.83325 8.26796 5.93589 8.55574 6.12818C8.84353 6.32047 9.06783 6.59379 9.20029 6.91356C9.33274 7.23333 9.36739 7.58519 9.29987 7.92466C9.23235 8.26413 9.06568 8.57595 8.82093 8.82069C8.57619 9.06543 8.26437 9.2321 7.9249 9.29963C7.58544 9.36715 7.23357 9.33249 6.9138 9.20004C6.59403 9.06759 6.32072 8.84329 6.12843 8.5555C5.93613 8.26771 5.8335 7.92937 5.8335 7.58325C5.8335 7.11912 6.01787 6.674 6.34606 6.34582C6.67425 6.01763 7.11937 5.83325 7.5835 5.83325Z" fill="#010504"/>
</svg>
